<?xml version="1.0" encoding="UTF-8" standalone="no"?>
<svg
   viewBox="0 0 175 175"
   width="175"
   height="175"
   version="1.1"
   id="svg5"
   sodipodi:docname="mark.svg"
   xml:space="preserve"
   inkscape:version="1.4.3 (fcd0343856, 2026-01-01)"
   xmlns:inkscape="http://www.inkscape.org/namespaces/inkscape"
   xmlns:sodipodi="http://sodipodi.sourceforge.net/DTD/sodipodi-0.dtd"
   xmlns="http://www.w3.org/2000/svg"
   xmlns:svg="http://www.w3.org/2000/svg"><defs
     id="defs5" /><sodipodi:namedview
     id="namedview5"
     pagecolor="#ffffff"
     bordercolor="#000000"
     borderopacity="0.25"
     inkscape:showpageshadow="2"
     inkscape:pageopacity="0.0"
     inkscape:pagecheckerboard="0"
     inkscape:deskcolor="#d1d1d1"
     inkscape:zoom="0.56169096"
     inkscape:cx="84.566075"
     inkscape:cy="110.38098"
     inkscape:window-width="1920"
     inkscape:window-height="1131"
     inkscape:window-x="0"
     inkscape:window-y="0"
     inkscape:window-maximized="1"
     inkscape:current-layer="svg5" /><circle
     cx="87.5"
     cy="87.5"
     r="85.5"
     fill="#1a5fb4"
     fill-opacity="0.08"
     stroke="#1a5fb4"
     stroke-width="1.5"
     stroke-opacity="0.4"
     id="circle1" /><circle
     cx="55"
     cy="87.5"
     r="53"
     fill="#1a5fb4"
     fill-opacity="0.14"
     stroke="#1a5fb4"
     stroke-width="2"
     stroke-opacity="0.6"
     id="circle2" /><circle
     cx="30"
     cy="87.5"
     r="28"
     fill="#1a5fb4"
     fill-opacity="0.28"
     stroke="#1a5fb4"
     stroke-width="2.5"
     stroke-opacity="0.85"
     id="circle3" /><path
     style="fill:#000000;stroke-width:0.285844"
     d="m 39.070064,87.749355 c -0.109726,0.04175 -0.245923,0.07589 -0.302659,0.07589 -0.0634,0 -0.1354,0.153024 -0.186817,0.397064 -0.04601,0.218376 -0.228582,1.060699 -0.405713,1.871828 l -0.322059,1.474784 -0.41022,-0.02273 c -0.225623,-0.01248 -0.424468,-0.03707 -0.441882,-0.05443 -0.0174,-0.01736 -0.120612,-0.789933 -0.229334,-1.716718 l -0.197675,-1.685055 -0.264703,0.0088 c -0.145587,0.0049 -1.813223,0.04887 -3.705854,0.09769 -1.892632,0.04877 -3.611318,0.112827 -3.819299,0.142284 l -0.378149,0.05355 -0.01971,0.415967 c -0.01972,0.416241 -0.698769,24.595621 -0.698769,24.881751 0,0.14296 -0.04963,0.15167 -0.8643,0.15167 h -0.8643 l -0.03946,-0.39707 c -0.02169,-0.21837 -0.143644,-5.38293 -0.270997,-11.4768 -0.127351,-6.093852 -0.252517,-11.593848 -0.278146,-12.222193 l -0.0466,-1.142449 -0.765571,-0.04692 c -1.631081,-0.09994 -3.115457,-0.691494 -2.960471,-1.179818 0.115942,-0.365294 1.380103,-0.740099 2.744612,-0.813714 0.78773,-0.04253 0.854503,-0.05804 0.88224,-0.204847 0.02466,-0.130521 0.584728,-25.341977 0.575187,-25.891854 -0.0029,-0.167181 0.01298,-0.17017 0.904604,-0.17017 h 0.907556 l -0.0019,0.510501 c -0.0045,1.287217 0.704401,25.852293 0.747362,25.897396 0.12106,0.127088 1.51641,0.215987 4.717774,0.300595 1.902538,0.05033 3.475629,0.07491 3.495757,0.05482 0.02012,-0.02009 0.116116,-0.723049 0.213303,-1.562036 0.09719,-0.838987 0.198246,-1.546965 0.224572,-1.573292 0.02633,-0.02634 0.227037,-0.05277 0.446028,-0.05862 l 0.398167,-0.01073 0.250729,1.134441 c 0.137902,0.623946 0.303955,1.378862 0.369011,1.677603 0.117353,0.5389 0.120741,0.543923 0.432611,0.64285 0.379573,0.120386 0.457636,0.328531 0.164951,0.439807 z"
     id="path1" /></svg>
